<svg width="168" height="36" viewBox="0 0 168 36" fill="none" xmlns="http://www.w3.org/2000/svg">
<path fill-rule="evenodd" clip-rule="evenodd" d="M129.454 16.003C129.089 13.956 127.332 12.9849 125.685 12.9849C124.039 12.9849 122.319 13.9913 121.953 16.003H129.454ZM133.314 21.5997C132.838 22.7096 131.283 25.9962 125.758 25.9962C123.197 25.9962 121.258 25.3018 119.685 23.8792C117.929 22.3178 117.197 20.3742 117.197 18.0151C117.197 15.031 118.477 13.1928 119.612 12.1163C121.478 10.3815 123.673 10 125.576 10C128.795 10 130.661 11.2146 131.759 12.4632C133.442 14.372 133.662 16.7312 133.662 18.3619V18.7088H121.807C121.807 19.6118 122.063 20.583 122.576 21.2419C123.05 21.8669 124.039 22.6646 125.758 22.6646C127.441 22.6646 128.722 21.9016 129.454 20.6864L133.314 21.5997ZM68.2572 16.003C67.8915 13.956 66.1352 12.9849 64.4887 12.9849C62.8421 12.9849 61.1225 13.9913 60.7567 16.003H68.2572ZM72.1172 21.6036C71.6417 22.7135 70.0866 26.0001 64.5618 26.0001C62.0009 26.0001 60.0611 25.3057 58.4884 23.8831C56.7315 22.3217 56 20.3781 56 18.019C56 15.0349 57.2801 13.1967 58.4146 12.1202C60.2813 10.3854 62.4764 10.0039 64.379 10.0039C67.5989 10.0039 69.4649 11.2185 70.5628 12.4671C72.2452 14.376 72.4653 16.7351 72.4653 18.3658V18.7127H60.6104C60.6104 19.6157 60.8665 20.5869 61.3792 21.2458C61.854 21.8708 62.8422 22.6685 64.5618 22.6685C66.245 22.6685 67.5257 21.9055 68.2572 20.6903L72.1172 21.6036ZM96.7332 10.2718H101.562V12.7562C102.511 11.7683 104.046 10.022 106.832 10.022C110.346 10.022 112.429 11.8043 112.429 16.608V25.6019H107.777V16.9715C107.777 15.1044 106.85 13.99 105.451 13.99C103.822 13.99 102.422 14.929 101.562 15.9792V25.6026H96.7332V10.2718ZM154.574 23.9537L155.839 20.5952C157.63 21.8046 160.254 22.5824 161.797 22.5824C163.155 22.5824 163.772 22.1212 163.772 21.4308V21.3736C163.772 20.423 162.168 20.1064 160.346 19.5887C158.031 18.9548 155.408 17.947 155.408 14.9527V14.8949C155.408 11.7567 158.124 10 161.457 10C163.557 10 165.42 10.413 167.21 11.5363L166.251 14.8082C164.616 13.9154 162.568 13.3688 161.364 13.3688C160.223 13.3688 159.637 13.8293 159.637 14.4343V14.4922C159.637 15.356 161.211 15.7581 163 16.3342C165.315 17.0542 168 18.0909 168 20.9125V20.9703C168 24.3962 165.254 25.9512 161.673 25.9512C159.358 25.9512 156.766 25.5665 154.574 23.9537ZM137.813 23.9537L139.078 20.5952C140.868 21.8046 143.492 22.5824 145.036 22.5824C146.393 22.5824 147.01 22.1212 147.01 21.4308V21.3736C147.01 20.423 145.406 20.1064 143.584 19.5887C141.27 18.9541 138.646 17.9464 138.646 14.9527V14.8949C138.646 11.7567 141.363 10 144.696 10C146.795 10 148.659 10.413 150.448 11.5363L149.49 14.8082C147.854 13.9154 145.807 13.3688 144.603 13.3688C143.462 13.3688 142.875 13.8293 142.875 14.4343V14.4922C142.875 15.356 144.449 15.7581 146.238 16.3342C148.554 17.0542 151.239 18.0909 151.239 20.9125V20.9703C151.239 24.3962 148.492 25.9512 144.912 25.9505C142.597 25.9512 140.004 25.5665 137.813 23.9537ZM83.5558 14.773L86.8848 10.2866H92.1244L86.1601 17.7738L92.3879 25.6039H87.0162L83.4569 20.8317L79.897 25.6039H74.6573L80.8534 17.8309L74.889 10.2866H80.2607L83.5558 14.773Z" fill="#010101"/>
<path fill-rule="evenodd" clip-rule="evenodd" d="M9.63343 20.4459C9.50836 20.1364 9.38329 18.9803 9.38329 18.2992C9.38329 14.6244 11.9899 11.4448 18.8291 11.4448H22.4152C22.4152 11.4448 21.6069 11.7961 19.8296 13.0962C18.053 14.397 9.63343 20.4459 9.63343 20.4459ZM37.7826 17.6821L50.7112 8H44.2887L34.5717 15.3693L32.0006 13.6977H25.8973L31.4437 17.7642L27.1486 21.3563C24.9587 23.1934 21.8906 25.7617 17.3447 25.7617C15.5517 25.7617 13.0109 25.3615 11.593 23.8125L32.5495 8H19.8717C12.115 8 8.15302 12.438 8.15302 17.9297C8.15302 19.065 8.40315 20.4889 8.69475 21.1497L0 27.5291H6.65156L10.6761 24.515C12.1354 26.3111 15.2436 27.9826 18.5348 27.9996C23.9568 28.0452 28.8495 24.4746 30.5893 23.1106L34.5302 20.0145L44.81 27.5291H52L37.7826 17.6821Z" fill="#FFCF01"/>
</svg>
